<svg width="22" height="23" viewBox="0 0 22 23" fill="none" xmlns="http://www.w3.org/2000/svg">
<path fill-rule="evenodd" clip-rule="evenodd" d="M6.84324 1.25166C7.91849 1.20216 8.26132 1.19116 11.0003 1.19116C13.7393 1.19116 14.0822 1.20308 15.1565 1.25166C16.2308 1.30025 16.9642 1.47166 17.6058 1.72008C18.2777 1.974 18.8873 2.37091 19.3915 2.88425C19.9048 3.3875 20.3008 3.99616 20.5538 4.669C20.8032 5.31066 20.9737 6.044 21.0232 7.1165C21.0727 8.19358 21.0837 8.53641 21.0837 11.2745C21.0837 14.0135 21.0717 14.3563 21.0232 15.4316C20.9746 16.5041 20.8032 17.2374 20.5538 17.8791C20.3008 18.552 19.9042 19.1617 19.3915 19.6657C18.8873 20.179 18.2777 20.575 17.6058 20.828C16.9642 21.0773 16.2308 21.2478 15.1583 21.2973C14.0822 21.3468 13.7393 21.3578 11.0003 21.3578C8.26132 21.3578 7.91849 21.3459 6.84324 21.2973C5.77074 21.2487 5.03741 21.0773 4.39574 20.828C3.72284 20.575 3.11316 20.1783 2.60916 19.6657C2.09617 19.1621 1.6992 18.5527 1.44591 17.88C1.19749 17.2383 1.02699 16.505 0.977492 15.4325C0.927992 14.3554 0.916992 14.0126 0.916992 11.2745C0.916992 8.53549 0.928909 8.19266 0.977492 7.11833C1.02608 6.04399 1.19749 5.31066 1.44591 4.669C1.69957 3.99624 2.09685 3.38687 2.61008 2.88333C3.11336 2.37045 3.72242 1.97349 4.39483 1.72008C5.03649 1.47166 5.76983 1.30116 6.84233 1.25166H6.84324ZM15.0749 3.06666C14.0116 3.01808 13.6926 3.008 11.0003 3.008C8.30807 3.008 7.98907 3.01808 6.92574 3.06666C5.94216 3.11158 5.40866 3.27566 5.05299 3.41408C4.58274 3.59741 4.24633 3.81466 3.89341 4.16758C3.55887 4.49304 3.30141 4.88925 3.13991 5.32716C3.00149 5.68283 2.83741 6.21633 2.79249 7.19991C2.74391 8.26324 2.73383 8.58224 2.73383 11.2745C2.73383 13.9667 2.74391 14.2857 2.79249 15.3491C2.83741 16.3327 3.00149 16.8662 3.13991 17.2218C3.30124 17.6591 3.55883 18.056 3.89341 18.3814C4.21883 18.716 4.61574 18.9736 5.05299 19.1349C5.40866 19.2733 5.94216 19.4374 6.92574 19.4823C7.98907 19.5309 8.30716 19.541 11.0003 19.541C13.6935 19.541 14.0116 19.5309 15.0749 19.4823C16.0585 19.4374 16.592 19.2733 16.9477 19.1349C17.4179 18.9516 17.7543 18.7343 18.1072 18.3814C18.4418 18.056 18.6994 17.6591 18.8607 17.2218C18.9992 16.8662 19.1632 16.3327 19.2082 15.3491C19.2567 14.2857 19.2668 13.9667 19.2668 11.2745C19.2668 8.58224 19.2567 8.26324 19.2082 7.19991C19.1632 6.21633 18.9992 5.68283 18.8607 5.32716C18.6774 4.85691 18.4602 4.5205 18.1072 4.16758C17.7818 3.83306 17.3856 3.5756 16.9477 3.41408C16.592 3.27566 16.0585 3.11158 15.0749 3.06666ZM9.71241 14.3829C10.4317 14.6823 11.2326 14.7227 11.9783 14.4972C12.7241 14.2717 13.3684 13.7943 13.8013 13.1466C14.2342 12.4988 14.4287 11.7208 14.3517 10.9455C14.2747 10.1702 13.9309 9.44572 13.3791 8.89574C13.0273 8.54418 12.6019 8.27499 12.1336 8.10755C11.6653 7.9401 11.1657 7.87858 10.6708 7.92739C10.1758 7.97621 9.69788 8.13416 9.27131 8.38986C8.84474 8.64557 8.48017 8.99268 8.20385 9.40619C7.92753 9.81971 7.74633 10.2893 7.6733 10.7813C7.60026 11.2732 7.63721 11.7753 7.78149 12.2512C7.92576 12.7272 8.17377 13.1652 8.50765 13.5338C8.84154 13.9024 9.253 14.1924 9.71241 14.3829ZM7.33549 7.60966C7.81676 7.12839 8.38812 6.74662 9.01693 6.48616C9.64574 6.2257 10.3197 6.09164 11.0003 6.09164C11.6809 6.09164 12.3549 6.2257 12.9837 6.48616C13.6125 6.74662 14.1839 7.12839 14.6652 7.60966C15.1464 8.09093 15.5282 8.66229 15.7887 9.2911C16.0491 9.91991 16.1832 10.5939 16.1832 11.2745C16.1832 11.9551 16.0491 12.6291 15.7887 13.2579C15.5282 13.8867 15.1464 14.4581 14.6652 14.9393C13.6932 15.9113 12.3749 16.4574 11.0003 16.4574C9.62575 16.4574 8.30747 15.9113 7.33549 14.9393C6.36352 13.9674 5.81747 12.6491 5.81747 11.2745C5.81747 9.89992 6.36352 8.58164 7.33549 7.60966ZM17.3327 6.86349C17.4519 6.75099 17.5474 6.6157 17.6134 6.46564C17.6795 6.31557 17.7147 6.15378 17.7171 5.98985C17.7195 5.82591 17.689 5.66316 17.6273 5.51124C17.5657 5.35931 17.4742 5.2213 17.3583 5.10536C17.2424 4.98943 17.1043 4.89794 16.9524 4.8363C16.8005 4.77467 16.6377 4.74414 16.4738 4.74653C16.3099 4.74892 16.1481 4.78418 15.998 4.85022C15.8479 4.91626 15.7127 5.01173 15.6002 5.13099C15.3814 5.36294 15.2616 5.67102 15.2662 5.98985C15.2709 6.30867 15.3996 6.61313 15.6251 6.8386C15.8505 7.06407 16.155 7.19279 16.4738 7.19744C16.7926 7.20208 17.1007 7.08229 17.3327 6.86349Z" fill="white"/>
</svg>
